HIERARCHY
ROOT Hips
{
	OFFSET -3.958830 18.904000 13.208200
	CHANNELS 6 Xposition Yposition Zposition Zrotation Yrotation Xrotation 
	JOINT LHipJoint
	{
		OFFSET 0.000000 0.000000 0.000000
		CHANNELS 3 Zrotation Yrotation Xrotation
		JOINT LeftUpLeg
		{
			OFFSET 1.800000 -1.400000 0.085000
			CHANNELS 3 Zrotation Yrotation Xrotation
			JOINT LeftLeg
			{
				OFFSET 2.215000 -6.000000 0.000000
				CHANNELS 3 Zrotation Yrotation Xrotation
				JOINT LeftFoot
				{
					OFFSET 2.500000 -6.900000 0.000000
					CHANNELS 3 Zrotation Yrotation Xrotation
					JOINT LeftToeBase
					{
						OFFSET 0.200000 -0.500000 1.950000
						CHANNELS 3 Zrotation Yrotation Xrotation
						End Site
						{
							OFFSET 0.000000 0.000000 0.000000
						}
					}
				}
			}
		}
	}
	JOINT RHipJoint
	{
		OFFSET 0.000000 0.000000 0.000000
		CHANNELS 3 Zrotation Yrotation Xrotation
		JOINT RightUpLeg
		{
			OFFSET -1.800000 -1.400000 0.085000
			CHANNELS 3 Zrotation Yrotation Xrotation
			JOINT RightLeg
			{
				OFFSET -2.215000 -6.000000 0.000000
				CHANNELS 3 Zrotation Yrotation Xrotation
				JOINT RightFoot
				{
					OFFSET -2.500000 -6.900000 0.000000
					CHANNELS 3 Zrotation Yrotation Xrotation
					JOINT RightToeBase
					{
						OFFSET -0.200000 -0.500000 1.950000
						CHANNELS 3 Zrotation Yrotation Xrotation
						End Site
						{
							OFFSET 0.000000 0.000000 0.000000
						}
					}
				}
			}
		}
	}
	JOINT LowerBack
	{
		OFFSET 0.000000 0.000000 0.000000
		CHANNELS 3 Zrotation Yrotation Xrotation
		JOINT Spine
		{
			OFFSET -0.087000 1.940000 -0.288900
			CHANNELS 3 Zrotation Yrotation Xrotation
			JOINT Spine1
			{
				OFFSET 0.000000 1.950000 0.060000
				CHANNELS 3 Zrotation Yrotation Xrotation
				JOINT Neck
				{
					OFFSET 0.000000 0.000000 0.000000
					CHANNELS 3 Zrotation Yrotation Xrotation
					JOINT Neck1
					{
						OFFSET 0.000000 1.600000 0.340000
						CHANNELS 3 Zrotation Yrotation Xrotation
						JOINT Head
						{
							OFFSET 0.000000 1.667000 -0.240000
							CHANNELS 3 Zrotation Yrotation Xrotation
							End Site
							{
								OFFSET 0.000000 0.000000 0.000000
							}
						}
					}
				}
				JOINT LeftShoulder
				{
					OFFSET 0.000000 0.000000 0.000000
					CHANNELS 3 Zrotation Yrotation Xrotation
					JOINT LeftArm
					{
						OFFSET 2.700000 1.550000 -0.730000
						CHANNELS 3 Zrotation Yrotation Xrotation
						JOINT LeftForeArm
						{
							OFFSET 5.450000 0.000000 0.000000
							CHANNELS 3 Zrotation Yrotation Xrotation
							JOINT LeftHand
							{
								OFFSET 3.450000 0.000000 0.000000
								CHANNELS 3 Zrotation Yrotation Xrotation
								JOINT LeftHandIndex1
								{
									OFFSET 0.750000 0.000000 0.000000
									CHANNELS 3 Zrotation Yrotation Xrotation
									End Site
									{
										OFFSET 0.000000 0.000000 0.000000
									}
								}
							}
						}
					}
				}
				JOINT RightShoulder
				{
					OFFSET 0.000000 0.000000 0.000000
					CHANNELS 3 Zrotation Yrotation Xrotation
					JOINT RightArm
					{
						OFFSET -2.700000 1.550000 -0.730000
						CHANNELS 3 Zrotation Yrotation Xrotation
						JOINT RightForeArm
						{
							OFFSET -5.450000 0.000000 0.000000
							CHANNELS 3 Zrotation Yrotation Xrotation
							JOINT RightHand
							{
								OFFSET -3.450000 0.000000 0.000000
								CHANNELS 3 Zrotation Yrotation Xrotation
								JOINT RightHandIndex1
								{
									OFFSET -0.750000 0.000000 0.000000
									CHANNELS 3 Zrotation Yrotation Xrotation
									End Site
									{
										OFFSET 0.000000 0.000000 0.000000
									}
								}
							}
						}
					}
				}
			}
		}
	}
}
MOTION
Frames: 6
Frame Time: 0.016667
-0.747880 16.501390 -4.078530 6.279624 -19.828812 -15.131107 -14.728460 13.529181 2.716265 4.196783 -0.689366 -6.007392 -6.909242 12.748996 39.499127 0.713985 7.943087 1.673002 0.258360 0.202010 0.393830 18.621883 -10.759843 3.082611 -35.367321 -0.299893 -18.952816 15.106960 -13.216194 30.326286 -0.559135 -6.693844 1.673738 0.114580 -0.295410 0.017360 -4.612923 -2.266474 -7.588900 26.453360 -8.868353 20.964933 -7.636865 -8.230733 10.073376 3.070807 -8.974177 -13.686241 -23.605167 17.479658 48.883822 -14.854820 11.818030 -5.035890 -37.549978 -18.452845 10.369127 -21.603428 8.970066 -0.574350 -6.840598 -9.695204 0.077689 -3.282415 3.144002 0.270310 -0.110350 0.206270 -0.092010 31.554639 23.964484 7.815922 39.792076 23.201911 -1.211682 46.207586 87.074983 36.216052 2.430097 -1.679540 -0.003640 0.022460 -0.064590 -0.215660 
-0.776930 16.512580 -4.082440 6.385552 -19.359644 -15.380325 -14.706724 13.550417 2.668924 3.921664 -0.548182 -5.591232 -5.870705 12.200636 39.416180 0.693328 7.788517 1.725696 0.256390 0.204620 0.403390 18.634264 -10.813896 3.103507 -35.500586 -0.298665 -18.455614 15.396721 -13.314873 30.138951 -0.573292 -6.733582 1.660915 0.108970 -0.305870 0.024440 -4.655598 -2.177051 -7.571198 26.863681 -8.786951 21.030953 -8.056151 -8.209873 10.633341 3.302785 -8.715904 -13.851202 -22.700981 17.350262 48.866470 -15.698350 12.532830 -5.269640 -37.963354 -18.950179 10.658165 -20.476921 9.243473 -0.346181 -4.527116 -8.912386 0.022308 -3.283573 3.147651 0.265360 -0.106000 0.216690 -0.094160 31.464055 24.422617 8.006379 40.114244 23.915061 -1.064764 45.146164 88.422036 35.975051 2.411279 -1.699700 0.004430 0.011950 -0.070970 -0.218030 
-0.832040 16.541880 -4.085510 6.691653 -18.587050 -15.659820 -14.675924 13.548307 2.578307 3.529026 -0.216488 -4.750422 -4.635563 11.327229 38.352735 0.643682 7.447811 1.846277 0.253950 0.208930 0.396200 18.662421 -10.889119 3.132228 -35.796423 -0.333531 -17.579100 15.926727 -13.403021 29.506554 -0.580685 -6.781890 1.646575 0.105720 -0.305910 0.029230 -4.740471 -2.019850 -7.502508 27.654456 -8.837712 20.718176 -8.320227 -8.550848 11.936035 3.388272 -8.997306 -14.416703 -23.236655 17.551081 48.001122 -16.301260 12.700850 -5.156100 -37.704967 -19.842159 11.410464 -19.323195 9.821678 0.368477 -2.256117 -6.140516 -0.043145 -3.297102 3.142450 0.245110 -0.100270 0.213900 -0.090870 31.152933 25.624653 8.397409 40.233705 25.774810 -0.014093 -134.759467 89.105660 -142.507917 2.406604 -1.710127 0.017540 0.000880 -0.074200 -0.208260 
-0.915370 16.584030 -4.090220 6.992036 -17.874572 -15.780681 -14.646305 13.532485 2.491532 3.591504 0.233099 -3.848301 -4.054170 10.685208 36.527495 0.578186 7.099798 1.976660 0.248850 0.203690 0.375420 18.685116 -10.991965 3.133083 -35.622417 -0.326615 -16.733152 16.204676 -13.285942 28.672179 -0.567388 -6.759137 1.660666 0.105450 -0.282110 0.032720 -4.817313 -1.813607 -7.419050 28.057742 -8.494372 20.145688 -7.933794 -8.686171 13.625957 3.236689 -9.429325 -14.961008 -24.065824 17.567552 46.866163 -15.955230 12.160980 -4.811480 -36.153608 -20.392355 12.013115 -18.819932 10.318755 0.778116 -1.303114 -4.790655 -0.051656 -3.325915 3.141127 0.226420 -0.088730 0.194790 -0.083160 30.133403 26.518546 8.874413 40.057864 28.238936 3.698750 -123.029516 84.586829 -128.954340 2.621862 -1.286134 0.019790 0.003220 -0.067090 -0.194680 
-1.018240 16.631370 -4.096590 7.256657 -16.831087 -15.422181 -14.625693 13.498713 2.366634 3.963556 0.697748 -3.119017 -3.554210 9.946618 33.939955 0.484076 6.654942 2.146369 0.241360 0.196910 0.339860 18.715144 -11.070367 3.105695 -35.283160 -0.368784 -15.760486 16.521735 -13.107074 27.520360 -0.543054 -6.716725 1.687688 0.113030 -0.239800 0.029010 -4.907198 -1.618909 -7.260703 27.976026 -8.114143 18.896321 -7.872630 -9.086105 14.008568 2.733629 -9.851408 -14.378362 -24.779187 17.230887 45.616105 -14.656780 11.147030 -4.227350 -33.389166 -19.529335 12.364623 -18.880365 11.269149 0.911008 -1.886221 -4.824049 -0.046934 -3.346494 3.169866 0.202660 -0.071340 0.161230 -0.066940 28.303428 26.543574 6.635053 42.651610 30.220499 -0.078093 100.702590 86.172842 95.606101 2.551287 5.081766 0.011300 0.015000 -0.059320 -0.176140 
-1.125950 16.717620 -4.111700 7.644138 -15.447378 -14.796201 -14.561934 13.412293 2.308646 4.202582 0.964823 -2.684444 -3.403794 9.188846 30.814438 0.365794 6.138814 2.339125 0.232380 0.188370 0.320090 18.757880 -11.266443 3.092867 -34.561182 -0.476776 -14.866659 16.285014 -12.575423 25.857028 -0.505267 -6.544828 1.761127 0.115400 -0.209450 0.033020 -5.055292 -1.168087 -7.238505 27.854457 -7.392062 17.894283 -7.289016 -8.636640 15.875115 2.675048 -10.390451 -14.879734 -24.822188 16.747797 43.968514 -14.666330 10.984940 -4.577010 -30.767638 -20.359075 12.961838 -18.644985 11.533179 0.849860 -2.352270 -5.859954 -0.022047 -3.368789 3.181766 0.189380 -0.051380 0.140040 -0.059500 26.345004 28.182204 8.035905 41.794011 30.845299 0.357022 168.732031 82.543058 163.983074 1.931578 -1.297191 0.002910 0.025320 -0.048960 -0.169320 
